<svg xmlns="http://www.w3.org/2000/svg" xmlns:xlink="http://www.w3.org/1999/xlink" viewBox="0 0 388.76 84.04"><defs><style>.cls-1{fill:none;}.cls-2{clip-path:url(#clip-path);}.cls-3{fill:url(#linear-gradient);}.cls-4{clip-path:url(#clip-path-2);}.cls-5{fill:url(#linear-gradient-2);}.cls-6{fill:#fff;}.cls-7{fill:#91989e;}</style><clipPath id="clip-path"><path class="cls-1" d="M19.28,13.53c-3.61,3.55-7.23,7.09-10.81,10.67-3,2.94-5.89,5.92-7.3,9.93A20.78,20.78,0,0,0,0,40.85a19.62,19.62,0,1,0,39.23,0c0-5.85-3-10.63-6.78-14.88-2.9-3.25-6.27-6.19-9.14-9.07-1.12-1.13-2.24-2.24-3.37-3.37a.46.46,0,0,0-.33-.13.48.48,0,0,0-.33.13"/></clipPath><linearGradient id="linear-gradient" x1="-934.99" y1="424.25" x2="-933.5" y2="424.25" gradientTransform="matrix(0, -31.62, -31.62, 0, 13432.98, -29500.53)" gradientUnits="userSpaceOnUse"><stop offset="0" stop-color="#8f8b8b"/><stop offset="0.12" stop-color="#8f8b8b"/><stop offset="0.8" stop-color="#4d4d4d"/><stop offset="1" stop-color="#4d4d4d"/></linearGradient><clipPath id="clip-path-2"><path class="cls-1" d="M43.65,8q-6.46,6.36-12.91,12.73c1.19,1.17,2.37,2.36,3.49,3.62,3.17,3.55,7.38,9.12,7.38,16.47a22,22,0,0,1-21.6,22,28.42,28.42,0,0,0,44.62,4.64V28.27c-.6-.73-1.22-1.46-1.86-2.18-4.2-4.72-9.1-9-13.28-13.18L44.61,8a.65.65,0,0,0-.48-.2.63.63,0,0,0-.48.2"/></clipPath><linearGradient id="linear-gradient-2" x1="-933.51" y1="430.02" x2="-932.03" y2="430.02" gradientTransform="matrix(0, -45.93, -45.93, 0, 19793.29, -42800.08)" xlink:href="#linear-gradient"/></defs><title>BRS Logo Monochrome</title><g id="Monochrome"><g class="cls-2"><rect class="cls-3" y="13.4" width="39.23" height="47.07"/></g><g class="cls-4"><rect class="cls-5" x="20.01" y="7.83" width="44.62" height="68.38"/></g><path class="cls-6" d="M105.44,46.86a1.35,1.35,0,0,1-1-.42,1.33,1.33,0,0,1-.42-1V11.65a1.44,1.44,0,0,1,1.4-1.4h18.87a14.5,14.5,0,0,1,4.41.63,11.63,11.63,0,0,1,3.57,1.84,9.47,9.47,0,0,1,2.5,2.92,7.7,7.7,0,0,1,.87,3.71,9.07,9.07,0,0,1-1.12,4.54A8.2,8.2,0,0,1,131,27.06a9.53,9.53,0,0,1,3.69,2.43,10.28,10.28,0,0,1,2.34,7,9.43,9.43,0,0,1-3.6,7.66,13.65,13.65,0,0,1-8.87,2.75Zm11.07-28.25v5.83h2.85a4.43,4.43,0,0,0,2.87-.88,2.54,2.54,0,0,0,1.1-2,2.7,2.7,0,0,0-1-2.11,4.38,4.38,0,0,0-2.88-.88Zm0,12.93v7h3.22a5.41,5.41,0,0,0,3.25-.93,2.93,2.93,0,0,0,1.28-2.48,3.13,3.13,0,0,0-1.21-2.59,5,5,0,0,0-3.18-1Z"/><path class="cls-6" d="M162.81,45.46a6,6,0,0,1-.49-.51,25.64,25.64,0,0,1-4.48,1.77,17.05,17.05,0,0,1-4.86.7c-3.24,0-5.7-.76-7.4-2.29A7.84,7.84,0,0,1,143,39a8,8,0,0,1,3.87-6.82,15.73,15.73,0,0,1,4.32-1.94,16.61,16.61,0,0,1,5.35-.53l3.92.18a2.64,2.64,0,0,0-1-2.15A4.24,4.24,0,0,0,157,27a14.58,14.58,0,0,0-2.33.18,12.18,12.18,0,0,0-2.29.65c-.72.28-1.37.55-2,.8s-1.15.5-1.68.75a1.32,1.32,0,0,1-1.1.07,1.36,1.36,0,0,1-.82-.77L145,24.63a1.4,1.4,0,0,1,0-.84,1.58,1.58,0,0,1,.35-.7A8.61,8.61,0,0,1,146.93,22a27.59,27.59,0,0,1,2.88-1.28,23.35,23.35,0,0,1,3.69-1,21.06,21.06,0,0,1,4.06-.37,24.94,24.94,0,0,1,6,.63,10.47,10.47,0,0,1,4.16,2,8,8,0,0,1,2.42,3.53,15.3,15.3,0,0,1,.8,5.25v9.58l.32.28.33.23a1.47,1.47,0,0,1,.87.26,1.43,1.43,0,0,1,.49.63,1.41,1.41,0,0,1,0,.79,1.31,1.31,0,0,1-.51.75l-5,4.11A6.22,6.22,0,0,1,163.4,46c-.22-.19-.42-.36-.59-.52m-2.87-6.28.7-.3v-2.2h-.14q-7.14,0-7.14,2.29c0,.78.79,1.17,2.38,1.17a9,9,0,0,0,3.36-.61l.84-.35"/><path class="cls-6" d="M198.8,45.23c-2,1.49-4.69,2.24-8.17,2.24a33.44,33.44,0,0,1-5.35-.4,29,29,0,0,1-4.6-1.09,1.4,1.4,0,0,1-.61-.42,1.32,1.32,0,0,1-.33-.71l-.6-5.74a1.36,1.36,0,0,1,.49-1.31,1.21,1.21,0,0,1,1.37-.09l1.31.54,2.29.86a14.44,14.44,0,0,0,5.37,1,4.71,4.71,0,0,0,1.4-.17c.35-.1.52-.28.52-.53,0-.41-.43-.78-1.29-1.12s-2-.78-3.48-1.31v0a20.9,20.9,0,0,1-4.57-2.33q-3.13-2-3.13-6.4a9.08,9.08,0,0,1,.79-3.92,7.45,7.45,0,0,1,2.52-2.9,10.88,10.88,0,0,1,3.51-1.61,16.82,16.82,0,0,1,4.39-.53,15.82,15.82,0,0,1,2.26.16c.76.11,1.5.24,2.19.4a16.87,16.87,0,0,1,1.94.53c.6.21,1.11.4,1.55.59a1,1,0,0,1,.56.51,1.68,1.68,0,0,1,.23.79v5.51a1.3,1.3,0,0,1-.7,1.29,1.27,1.27,0,0,1-1.4-.16l-.82-.45c-.42-.23-1-.52-1.7-.86a8.76,8.76,0,0,0-3.93-1,2.16,2.16,0,0,0-1.12.26.71.71,0,0,0-.42.58c0,.44.41.86,1.24,1.29a44.17,44.17,0,0,0,4.13,1.7,13.5,13.5,0,0,1,5.23,3.25,7.06,7.06,0,0,1,1.87,5.06,7.62,7.62,0,0,1-2.94,6.45"/><path class="cls-6" d="M231.77,45.09a10,10,0,0,1-1.94,1,18.69,18.69,0,0,1-2.36.72,21.52,21.52,0,0,1-2.61.47,22.39,22.39,0,0,1-2.71.16c-4.58,0-8.23-1.27-11-3.83s-4.1-6.1-4.1-10.64a13.42,13.42,0,0,1,3.68-9.72,12.36,12.36,0,0,1,9.34-3.87,11.69,11.69,0,0,1,9.16,3.92q3.36,3.78,3.36,9.95v2.05a1.35,1.35,0,0,1-.4,1,1.25,1.25,0,0,1-1,.42H217.94a4.14,4.14,0,0,0,.85,1.22q1.4,1.4,4.81,1.4a12.2,12.2,0,0,0,3.22-.42c.56-.16,1-.28,1.31-.38a4.33,4.33,0,0,0,.65-.23,1.21,1.21,0,0,1,1.05,0,1.42,1.42,0,0,1,.77.75l1.73,4.39ZM217.53,30.47h4.85a5.72,5.72,0,0,0-.79-2.54,1.81,1.81,0,0,0-1.54-.92,2,2,0,0,0-1.87,1.27,6.66,6.66,0,0,0-.65,2.19"/><path class="cls-6" d="M274.64,46.86a1.44,1.44,0,0,1-1-.39,1.3,1.3,0,0,1-.42-1V31a6.31,6.31,0,0,0-.33-2.19c-.22-.56-.55-.84-1-.84a5.54,5.54,0,0,0-1.4.18,8.78,8.78,0,0,0-1.45.56l-.91.4a3.69,3.69,0,0,0-.63.31V45.46a1.34,1.34,0,0,1-.42,1,1.47,1.47,0,0,1-1,.39h-8.31a1.45,1.45,0,0,1-1-.39,1.34,1.34,0,0,1-.42-1V31a6.08,6.08,0,0,0-.33-2.19c-.22-.56-.54-.84-1-.84a7.19,7.19,0,0,0-3,.7h0c-.35.15-.64.29-.89.42a3.62,3.62,0,0,0-.61.37v16a1.34,1.34,0,0,1-.42,1,1.44,1.44,0,0,1-1,.39h-8.32a1.44,1.44,0,0,1-1-.39,1.3,1.3,0,0,1-.42-1V21.36a1.22,1.22,0,0,1,.42-.95,1.41,1.41,0,0,1,1-.4h5.89a1.56,1.56,0,0,1,.67.19,1.54,1.54,0,0,1,.59.42l1.12,1.77a17.52,17.52,0,0,1,4.34-2.19,15.46,15.46,0,0,1,5-.8,8.84,8.84,0,0,1,4.09.91,7.36,7.36,0,0,1,2.73,2.36c.43-.25.9-.51,1.38-.77L268.2,21a17.29,17.29,0,0,1,3.29-1.22,14,14,0,0,1,3.43-.42q9.48,0,9.48,10v16a1.34,1.34,0,0,1-.42,1,1.44,1.44,0,0,1-1,.39Z"/><path class="cls-6" d="M314.9,45.09a10,10,0,0,1-1.94,1,18.69,18.69,0,0,1-2.36.72,21.52,21.52,0,0,1-2.61.47,22.51,22.51,0,0,1-2.71.16q-6.87,0-11-3.83T290.19,33a13.43,13.43,0,0,1,3.69-9.72,12.36,12.36,0,0,1,9.34-3.87,11.69,11.69,0,0,1,9.16,3.92q3.36,3.78,3.36,9.95v2.05a1.35,1.35,0,0,1-.4,1,1.25,1.25,0,0,1-.95.42H301.08a3.64,3.64,0,0,0,.84,1.22q1.4,1.4,4.81,1.4a12.2,12.2,0,0,0,3.22-.42c.56-.16,1-.28,1.31-.38a4.33,4.33,0,0,0,.65-.23,1.21,1.21,0,0,1,1,0,1.42,1.42,0,0,1,.77.75l1.73,4.39ZM300.66,30.47h4.85a5.72,5.72,0,0,0-.79-2.54,1.81,1.81,0,0,0-1.54-.92,2,2,0,0,0-1.87,1.27,6.66,6.66,0,0,0-.65,2.19"/><path class="cls-6" d="M340.77,46.86a1.4,1.4,0,0,1-1-.39,1.34,1.34,0,0,1-.42-1V31a5.07,5.07,0,0,0-.4-2.19,1.27,1.27,0,0,0-1.19-.84,6.62,6.62,0,0,0-1.54.18,10,10,0,0,0-1.54.56h.05l-.89.4a4.32,4.32,0,0,0-.65.35v16a1.34,1.34,0,0,1-.42,1,1.4,1.4,0,0,1-1,.39h-8a1.34,1.34,0,0,1-1-.39,1.39,1.39,0,0,1-.39-1V21.36A1.35,1.35,0,0,1,323.82,20h5.7a1.39,1.39,0,0,1,.6.19,1.42,1.42,0,0,1,.56.42l1.08,1.77a16.57,16.57,0,0,1,4.32-2.19,15.3,15.3,0,0,1,4.93-.8c3.08,0,5.37.86,6.89,2.57s2.26,4.2,2.26,7.47v16a1.34,1.34,0,0,1-.42,1,1.4,1.4,0,0,1-1,.39Z"/><path class="cls-6" d="M372.9,39a1,1,0,0,0,.84.44,6.63,6.63,0,0,0,2.11-.32c.62-.22,1.1-.41,1.44-.56a1.2,1.2,0,0,1,1.29.09,1.39,1.39,0,0,1,.58,1.21v5.56a1.55,1.55,0,0,1-.23.77,1,1,0,0,1-.56.49,5.6,5.6,0,0,1-1.19.42c-.49.13-1.05.27-1.71.42s-1.38.28-2,.38a13.19,13.19,0,0,1-1.87.14q-5,0-7.27-1.92t-2.26-6.44V27.81h-3.78a1.3,1.3,0,0,1-.94-.42,1.4,1.4,0,0,1-.42-1v-5a1.31,1.31,0,0,1,.42-1,1.35,1.35,0,0,1,.94-.4h3.78V14.17a1.38,1.38,0,0,1,.35-.93,1.19,1.19,0,0,1,.82-.47l7.8-1.35a1.15,1.15,0,0,1,1.12.3,1.47,1.47,0,0,1,.47,1.1L372.58,20h5.23a1.31,1.31,0,0,1,.95.4,1.33,1.33,0,0,1,.4,1v5a1.42,1.42,0,0,1-.4,1,1.25,1.25,0,0,1-.95.42h-5.23v9.9A2.23,2.23,0,0,0,372.9,39"/><path class="cls-6" d="M116.63,75.82H112l-3.52-5.5h0v5.5h-3.73V61.5h5.57c2.83,0,5,1.35,5,4.41a3.85,3.85,0,0,1-3.14,4Zm-8.18-7.9h.36c1.21,0,2.58-.23,2.58-1.79s-1.37-1.78-2.58-1.78h-.36Z"/><polygon class="cls-6" points="126.31 64.65 126.31 67.05 130.51 67.05 130.51 70.2 126.31 70.2 126.31 72.67 130.74 72.67 130.74 75.82 122.58 75.82 122.58 61.5 130.74 61.5 130.74 64.65 126.31 64.65"/><path class="cls-6" d="M138,61.5h5.7c3.07,0,5.2,1.43,5.2,4.71s-1.82,4.86-5.07,4.86H141.7v4.75H138Zm3.72,6.57h.63c1.35,0,2.68,0,2.68-1.74s-1.24-1.83-2.68-1.83h-.63Z"/><path class="cls-6" d="M157.72,73.34l-1,2.48h-3.95l5.51-14.32h4.07l5.39,14.32h-4l-.93-2.48Zm2.6-7.41h0l-1.54,4.56h3.09Z"/><rect class="cls-6" x="173.86" y="61.5" width="3.72" height="14.32"/><path class="cls-6" d="M196.86,75.82h-4.63l-3.52-5.5h0v5.5H185V61.5h5.57c2.83,0,5,1.35,5,4.41a3.85,3.85,0,0,1-3.14,4Zm-8.18-7.9H189c1.21,0,2.58-.23,2.58-1.79s-1.37-1.78-2.58-1.78h-.36Z"/><path class="cls-6" d="M222.14,65.19a3.91,3.91,0,0,0-2.47-1c-.69,0-1.6.39-1.6,1.19s1,1.16,1.66,1.37l1,.29c2,.58,3.53,1.59,3.53,3.91a4.84,4.84,0,0,1-1.48,3.85,6.25,6.25,0,0,1-4.07,1.35,8.8,8.8,0,0,1-5-1.63l1.59-3a5.13,5.13,0,0,0,3.31,1.48c.87,0,1.8-.44,1.8-1.44s-1.46-1.41-2.26-1.64c-2.33-.66-3.87-1.27-3.87-4a4.64,4.64,0,0,1,4.94-4.81,9.81,9.81,0,0,1,4.48,1.18Z"/><path class="cls-6" d="M230.92,61.5h5.7c3.08,0,5.2,1.43,5.2,4.71s-1.82,4.86-5.07,4.86h-2.11v4.75h-3.72Zm3.72,6.57h.63c1.35,0,2.68,0,2.68-1.74s-1.24-1.83-2.68-1.83h-.63Z"/><polygon class="cls-6" points="252.15 64.65 252.15 67.05 256.34 67.05 256.34 70.2 252.15 70.2 252.15 72.67 256.57 72.67 256.57 75.82 248.42 75.82 248.42 61.5 256.57 61.5 256.57 64.65 252.15 64.65"/><path class="cls-6" d="M274.05,66.31a4,4,0,0,0-3.27-1.58,3.77,3.77,0,0,0-3.81,4,3.71,3.71,0,0,0,3.87,3.89,4.25,4.25,0,0,0,3.21-1.52v4.47a10.51,10.51,0,0,1-3.28.66,8,8,0,0,1-5.38-2.1,7,7,0,0,1-2.3-5.42,7.53,7.53,0,0,1,2.11-5.24,7.77,7.77,0,0,1,5.45-2.32,8.82,8.82,0,0,1,3.4.72Z"/><rect class="cls-6" x="281.3" y="61.5" width="3.72" height="14.32"/><path class="cls-6" d="M296,73.34l-1,2.48H291.1l5.51-14.32h4.07l5.39,14.32h-4l-.93-2.48Zm2.6-7.41h0l-1.54,4.56h3.09Z"/><polygon class="cls-6" points="315.9 72.67 320.36 72.67 320.36 75.82 312.18 75.82 312.18 61.5 315.9 61.5 315.9 72.67"/><rect class="cls-6" x="326.52" y="61.5" width="3.72" height="14.32"/><path class="cls-6" d="M345.48,65.19a3.89,3.89,0,0,0-2.46-1c-.69,0-1.6.39-1.6,1.19s1,1.16,1.65,1.37l.95.29c2,.58,3.53,1.59,3.53,3.91a4.84,4.84,0,0,1-1.48,3.85A6.22,6.22,0,0,1,342,76.2a8.83,8.83,0,0,1-5-1.63l1.6-3a5.08,5.08,0,0,0,3.3,1.48c.88,0,1.81-.44,1.81-1.44s-1.46-1.41-2.26-1.64c-2.33-.66-3.88-1.27-3.88-4a4.64,4.64,0,0,1,4.94-4.81A9.85,9.85,0,0,1,347,62.3Z"/><polygon class="cls-6" points="359.96 75.82 356.24 75.82 356.24 64.65 353.17 64.65 353.17 61.5 363.04 61.5 363.04 64.65 359.96 64.65 359.96 75.82"/><path class="cls-6" d="M377.2,65.19a3.91,3.91,0,0,0-2.47-1c-.68,0-1.6.39-1.6,1.19s1,1.16,1.66,1.37l.95.29c2,.58,3.53,1.59,3.53,3.91a4.84,4.84,0,0,1-1.48,3.85,6.23,6.23,0,0,1-4.07,1.35,8.8,8.8,0,0,1-5-1.63l1.59-3a5.13,5.13,0,0,0,3.31,1.48c.87,0,1.8-.44,1.8-1.44s-1.46-1.41-2.26-1.64c-2.33-.66-3.87-1.27-3.87-4a4.64,4.64,0,0,1,4.94-4.81,9.81,9.81,0,0,1,4.48,1.18Z"/><rect class="cls-7" x="67.82" width="14.3" height="12.33"/><polygon class="cls-7" points="82.13 39 82.13 29.52 67.82 29.52 67.82 40.65 82.13 40.65 82.13 39"/><rect class="cls-7" x="67.82" y="15.07" width="14.3" height="11.12"/><polygon class="cls-7" points="82.13 51.62 82.13 43.99 67.82 43.99 67.82 55.11 82.13 55.11 82.13 51.62"/><polygon class="cls-7" points="82.13 66.08 82.13 58.45 67.82 58.45 67.82 69.58 82.13 69.58 82.13 66.08"/><polygon class="cls-7" points="82.13 80.54 82.13 72.91 67.82 72.91 67.82 84.03 82.13 84.03 82.13 80.54"/><path class="cls-6" d="M387.25,13.77a5,5,0,0,1-8.57-3.62,4.84,4.84,0,0,1,1.57-3.67,5,5,0,0,1,3.47-1.36,4.85,4.85,0,0,1,3.56,1.47,4.84,4.84,0,0,1,1.48,3.56A4.87,4.87,0,0,1,387.25,13.77Zm-6.49-6.53a4,4,0,0,0-1.2,2.91,4,4,0,0,0,1.22,3,4.13,4.13,0,0,0,5.87,0,4.08,4.08,0,0,0,1.22-3,4,4,0,0,0-1.21-2.91,4.08,4.08,0,0,0-5.9,0Zm.75,5.72V7.37h2.71a2.65,2.65,0,0,1,1.1.28A1.41,1.41,0,0,1,386.06,9a1.21,1.21,0,0,1-.39,1,1.79,1.79,0,0,1-1,.38,1.93,1.93,0,0,1,.8.32A1.54,1.54,0,0,1,386,12v.5a1,1,0,0,0,0,.17.94.94,0,0,0,0,.16l0,.16H384.7a3.47,3.47,0,0,1-.09-.78,2.5,2.5,0,0,0-.1-.68.67.67,0,0,0-.41-.41,2,2,0,0,0-.5-.09l-.32,0H383v2Zm2.67-4.49a2.69,2.69,0,0,0-.85-.11H383V10h.57a1.33,1.33,0,0,0,.8-.21.76.76,0,0,0,.29-.66A.64.64,0,0,0,384.18,8.47Z"/></g></svg>